HIERARCHY
ROOT joint_0
{
	OFFSET 0.000000 0.000000 0.000000
	CHANNELS 6 Xposition Yposition Zposition Zrotation Yrotation Xrotation 
	JOINT joint_1
	{
		OFFSET 6.004005 -1.946999 100.587036
		CHANNELS 3 Zrotation Yrotation Xrotation
		JOINT joint_2
		{
			OFFSET -4.601006 -0.824997 91.925903
			CHANNELS 3 Zrotation Yrotation Xrotation
			JOINT joint_3
			{
				OFFSET -5.420998 -1.130005 91.774048
				CHANNELS 3 Zrotation Yrotation Xrotation
				JOINT joint_4
				{
					OFFSET 4.308998 -3.777992 123.473999
					CHANNELS 3 Zrotation Yrotation Xrotation
					JOINT joint_5
					{
						OFFSET 25.565002 -6.305008 79.437988
						CHANNELS 3 Zrotation Yrotation Xrotation
						End Site
						{
							OFFSET 0.000000 0.000000 0.000000
						}
					}
				}
				JOINT joint_6
				{
					OFFSET -1.750000 -28.655998 68.557983
					CHANNELS 3 Zrotation Yrotation Xrotation
					JOINT joint_7
					{
						OFFSET -17.692001 -116.544006 -17.244019
						CHANNELS 3 Zrotation Yrotation Xrotation
						JOINT joint_8
						{
							OFFSET 27.063004 -23.640991 -266.895020
							CHANNELS 3 Zrotation Yrotation Xrotation
							JOINT joint_9
							{
								OFFSET 40.722000 -15.761017 -232.488953
								CHANNELS 3 Zrotation Yrotation Xrotation
								End Site
								{
									OFFSET 0.000000 0.000000 0.000000
								}
							}
						}
					}
				}
				JOINT joint_10
				{
					OFFSET 6.593002 24.457001 69.892944
					CHANNELS 3 Zrotation Yrotation Xrotation
					JOINT joint_11
					{
						OFFSET 24.311996 114.920002 -19.872925
						CHANNELS 3 Zrotation Yrotation Xrotation
						JOINT joint_12
						{
							OFFSET 21.081001 15.319000 -268.037964
							CHANNELS 3 Zrotation Yrotation Xrotation
							JOINT joint_13
							{
								OFFSET 27.794006 -8.947001 -234.744080
								CHANNELS 3 Zrotation Yrotation Xrotation
								End Site
								{
									OFFSET 0.000000 0.000000 0.000000
								}
							}
						}
					}
				}
			}
		}
	}
	JOINT joint_14
	{
		OFFSET -6.627998 -80.520004 -98.790039
		CHANNELS 3 Zrotation Yrotation Xrotation
		JOINT joint_15
		{
			OFFSET -43.638000 -13.751999 -502.538971
			CHANNELS 3 Zrotation Yrotation Xrotation
			JOINT joint_16
			{
				OFFSET -39.532999 -9.912994 -398.071007
				CHANNELS 3 Zrotation Yrotation Xrotation
				JOINT joint_17
				{
					OFFSET 174.940004 -34.660995 -75.688002
					CHANNELS 3 Zrotation Yrotation Xrotation
					End Site
					{
						OFFSET 0.000000 0.000000 0.000000
					}
				}
			}
		}
	}
	JOINT joint_18
	{
		OFFSET 12.591003 79.842003 -98.765015
		CHANNELS 3 Zrotation Yrotation Xrotation
		JOINT joint_19
		{
			OFFSET -39.080002 -1.297001 -503.101013
			CHANNELS 3 Zrotation Yrotation Xrotation
			JOINT joint_20
			{
				OFFSET -51.570000 -0.514000 -396.815987
				CHANNELS 3 Zrotation Yrotation Xrotation
				JOINT joint_21
				{
					OFFSET 178.987999 -11.521999 -73.244003
					CHANNELS 3 Zrotation Yrotation Xrotation
					End Site
					{
						OFFSET 0.000000 0.000000 0.000000
					}
				}
			}
		}
	}
}
MOTION
Frames: 13
Frame Time: 0.016667
-1905.171143 990.948975 1093.119019 -1.658605 0.527497 -0.650480 1.782315 4.237585 1.160993 1.772194 -0.681580 -0.181268 1.818091 0.785007 0.134170 0.160046 -2.673763 -1.156363 0.000000 0.000000 0.000000 0.218734 0.540138 0.068195 -0.038205 -0.159974 4.932815 -1.623297 3.694549 -7.413296 0.000000 0.000000 0.000000 2.195951 -0.587751 1.479828 0.021444 0.303671 -4.475380 0.849266 -1.834659 7.578857 0.000000 0.000000 0.000000 1.030454 -4.545161 -1.287661 0.487343 7.253047 0.473954 0.746826 -1.892511 -0.053814 0.000000 0.000000 0.000000 -1.177908 -6.465509 5.459563 -0.994245 8.663984 1.295142 -0.845990 -1.462966 -0.434341 0.000000 0.000000 0.000000 
-1904.097168 990.653381 1093.498047 -1.396229 0.692085 -0.689144 1.834991 4.447966 1.211833 1.831361 -0.714318 -0.171133 1.877544 0.822593 0.121676 0.143757 -2.759840 -1.125470 0.000000 0.000000 0.000000 0.249679 0.396795 0.024067 -0.061091 -0.242029 4.534273 -1.572811 3.583667 -7.135604 0.000000 0.000000 0.000000 2.110334 -0.632262 1.625304 0.024526 0.322393 -4.545215 0.841737 -1.994798 7.509358 0.000000 0.000000 0.000000 0.941280 -4.568593 -1.228636 0.404746 7.101266 0.487414 0.662592 -1.802509 -0.072135 0.000000 0.000000 0.000000 -1.251084 -6.722602 5.480666 -1.078498 8.875533 1.359765 -0.919574 -1.471618 -0.464455 0.000000 0.000000 0.000000 
-1902.718750 990.367615 1093.927002 -1.137203 0.893931 -0.726313 1.861765 4.592071 1.249134 1.864268 -0.735431 -0.163372 1.910614 0.846134 0.111898 0.127505 -2.838712 -1.092442 0.000000 0.000000 0.000000 0.264502 0.288102 -0.009721 -0.080256 -0.287168 4.113909 -1.493304 3.307722 -6.789366 0.000000 0.000000 0.000000 2.053896 -0.635350 1.774732 0.028328 0.378287 -4.612347 0.835855 -2.128752 7.455956 0.000000 0.000000 0.000000 0.853651 -4.594985 -1.175810 0.323878 6.899678 0.508454 0.577920 -1.670815 -0.082394 0.000000 0.000000 0.000000 -1.325930 -6.976852 5.512524 -1.161523 9.028665 1.400245 -0.994295 -1.451379 -0.493211 0.000000 0.000000 0.000000 
-1900.929810 990.117371 1094.385010 -0.909828 1.172504 -0.744774 1.846982 4.584975 1.249358 1.852803 -0.735695 -0.167539 1.899855 0.841650 0.113515 0.108407 -2.903466 -1.046369 0.000000 0.000000 0.000000 0.243725 0.207947 -0.009931 -0.097163 -0.296837 3.646575 -1.386508 2.889617 -6.381890 0.000000 0.000000 0.000000 2.077722 -0.560379 1.883778 0.035048 0.477838 -4.621619 0.832784 -2.204476 7.436130 0.000000 0.000000 0.000000 0.777317 -4.671014 -1.151734 0.250539 6.660236 0.536757 0.498039 -1.486646 -0.080221 0.000000 0.000000 0.000000 -1.394307 -7.243116 5.548389 -1.233647 9.078875 1.392221 -1.063764 -1.374882 -0.516336 0.000000 0.000000 0.000000 
-1898.766724 989.885986 1094.894043 -0.691976 1.517775 -0.751880 1.796723 4.460176 1.220358 1.803702 -0.716822 -0.178132 1.851478 0.814966 0.121815 0.086188 -2.962357 -0.988613 0.000000 0.000000 0.000000 0.193379 0.159782 0.024660 -0.114838 -0.265792 3.130279 -1.249281 2.293127 -5.898535 0.000000 0.000000 0.000000 2.154565 -0.420577 1.980061 0.044259 0.625360 -4.605292 0.832425 -2.252771 7.441603 0.000000 0.000000 0.000000 0.705324 -4.777197 -1.146816 0.179639 6.365650 0.574623 0.417850 -1.247633 -0.067335 0.000000 0.000000 0.000000 -1.463341 -7.523733 5.593394 -1.302444 9.045020 1.343839 -1.134373 -1.251043 -0.536972 0.000000 0.000000 0.000000 
-1896.415161 989.681641 1095.381958 -0.532420 1.836080 -0.757820 1.740459 4.323907 1.177667 1.747585 -0.696451 -0.187757 1.795935 0.787739 0.131157 0.068374 -2.992691 -0.937271 0.000000 0.000000 0.000000 0.148274 0.109375 0.074421 -0.131649 -0.235938 2.627535 -1.114185 1.707606 -5.421014 0.000000 0.000000 0.000000 2.246157 -0.274477 2.032522 0.048034 0.755468 -4.538734 0.833506 -2.179846 7.479944 0.000000 0.000000 0.000000 0.649344 -4.860388 -1.140739 0.126275 6.091134 0.603571 0.353490 -1.001458 -0.046245 0.000000 0.000000 0.000000 -1.513637 -7.741008 5.635936 -1.351185 8.980911 1.295613 -1.185781 -1.126780 -0.549869 0.000000 0.000000 0.000000 
-1893.967163 989.510559 1095.802979 -0.466554 2.064380 -0.771600 1.695736 4.244328 1.129779 1.703027 -0.686107 -0.187759 1.751093 0.774332 0.132145 0.058477 -2.979311 -0.899788 0.000000 0.000000 0.000000 0.134382 0.031721 0.130976 -0.145021 -0.234207 2.164935 -0.998273 1.256271 -4.986967 0.000000 0.000000 0.000000 2.333972 -0.159774 2.013612 0.040236 0.819214 -4.387667 0.834249 -1.892033 7.556146 0.000000 0.000000 0.000000 0.617989 -4.882001 -1.118614 0.101830 5.881441 0.610597 0.316321 -0.765915 -0.015584 0.000000 0.000000 0.000000 -1.531305 -7.835244 5.671048 -1.367151 8.912565 1.271788 -1.203032 -1.034121 -0.551014 0.000000 0.000000 0.000000 
-1891.350586 989.369873 1096.185059 -0.475182 2.238519 -0.790366 1.650421 4.179523 1.072137 1.657244 -0.677549 -0.184916 1.704782 0.767991 0.132060 0.054933 -2.931796 -0.873602 0.000000 0.000000 0.000000 0.141764 -0.062093 0.200459 -0.156166 -0.246154 1.717787 -0.889331 0.868049 -4.561806 0.000000 0.000000 0.000000 2.435937 -0.054414 1.933471 0.022806 0.840359 -4.162962 0.834107 -1.424345 7.666128 0.000000 0.000000 0.000000 0.606932 -4.862056 -1.088137 0.100692 5.707256 0.603194 0.300438 -0.523262 0.025632 0.000000 0.000000 0.000000 -1.524184 -7.835719 5.703221 -1.357218 8.818283 1.257922 -1.194250 -0.953840 -0.542468 0.000000 0.000000 0.000000 
-1888.710327 989.253540 1096.520020 -0.548621 2.363523 -0.808619 1.612660 4.136321 1.004532 1.619393 -0.673099 -0.175824 1.665851 0.766850 0.128088 0.055897 -2.851259 -0.853685 0.000000 0.000000 0.000000 0.151684 -0.158796 0.270527 -0.163796 -0.274573 1.359243 -0.802132 0.554585 -4.220075 0.000000 0.000000 0.000000 2.517246 0.035393 1.838814 0.000037 0.847646 -3.949353 0.835736 -0.908804 7.813485 0.000000 0.000000 0.000000 0.612002 -4.819568 -1.057706 0.115479 5.596392 0.588083 0.302557 -0.334828 0.063853 0.000000 0.000000 0.000000 -1.494612 -7.781116 5.721701 -1.326356 8.745903 1.262813 -1.163719 -0.890428 -0.526203 0.000000 0.000000 0.000000 
-1886.140259 989.164185 1096.788940 -0.690839 2.433929 -0.823114 1.588013 4.129619 0.927466 1.595341 -0.676281 -0.163027 1.640393 0.772133 0.119010 0.060657 -2.731626 -0.836587 0.000000 0.000000 0.000000 0.160228 -0.252712 0.328615 -0.165631 -0.326491 1.153624 -0.749820 0.334294 -4.027762 0.000000 0.000000 0.000000 2.560042 0.099875 1.761048 -0.027256 0.854563 -3.808996 0.842677 -0.403390 8.020616 0.000000 0.000000 0.000000 0.631796 -4.762360 -1.031361 0.143011 5.579363 0.566203 0.322685 -0.257280 0.087858 0.000000 0.000000 0.000000 -1.439796 -7.685828 5.716264 -1.273934 8.727824 1.297500 -1.109888 -0.850721 -0.502001 0.000000 0.000000 0.000000 
-1883.581299 989.102722 1096.995972 -0.905118 2.448783 -0.836459 1.573890 4.154828 0.838330 1.582435 -0.686303 -0.143078 1.625466 0.784893 0.104309 0.070287 -2.571921 -0.825380 0.000000 0.000000 0.000000 0.170939 -0.347543 0.378015 -0.161437 -0.400525 1.073944 -0.725783 0.200369 -3.954812 0.000000 0.000000 0.000000 2.573948 0.141838 1.682310 -0.061148 0.851177 -3.709825 0.853245 0.143883 8.284298 0.000000 0.000000 0.000000 0.667616 -4.683246 -1.005737 0.185887 5.644208 0.534735 0.361760 -0.266683 0.102785 0.000000 0.000000 0.000000 -1.358877 -7.535733 5.691358 -1.198042 8.745116 1.358083 -1.031195 -0.832804 -0.469124 0.000000 0.000000 0.000000 
-1881.071045 989.047607 1097.201050 -1.150614 2.439157 -0.845815 1.564752 4.178255 0.752943 1.574276 -0.695469 -0.123956 1.615280 0.796009 0.089422 0.083048 -2.405807 -0.822979 0.000000 0.000000 0.000000 0.178437 -0.430720 0.423929 -0.153071 -0.476434 1.071657 -0.715308 0.115819 -3.936681 0.000000 0.000000 0.000000 2.577408 0.178143 1.612450 -0.090565 0.851699 -3.636206 0.862701 0.612197 8.511303 0.000000 0.000000 0.000000 0.714738 -4.601746 -0.989061 0.237636 5.747365 0.508852 0.411367 -0.295596 0.118368 0.000000 0.000000 0.000000 -1.270928 -7.374991 5.657295 -1.116414 8.797699 1.425883 -0.947113 -0.816803 -0.434166 0.000000 0.000000 0.000000 
-1878.640503 988.985046 1097.441040 -1.408209 2.423244 -0.847052 1.556250 4.181640 0.676417 1.566592 -0.700756 -0.102217 1.605218 0.801833 0.073956 0.100982 -2.254224 -0.840577 0.000000 0.000000 0.000000 0.180491 -0.496866 0.468365 -0.141009 -0.545889 1.127744 -0.711426 0.061465 -3.943370 0.000000 0.000000 0.000000 2.585584 0.222015 1.559800 -0.106379 0.867950 -3.578763 0.868865 0.909643 8.637566 0.000000 0.000000 0.000000 0.772198 -4.533915 -0.990346 0.295183 5.869283 0.501445 0.467792 -0.305271 0.140678 0.000000 0.000000 0.000000 -1.189144 -7.231229 5.618465 -1.041613 8.888453 1.487321 -0.871766 -0.788669 -0.401938 0.000000 0.000000 0.000000 
